<?xml version="1.0" encoding="utf-8"?>
<!-- Generator: Adobe Illustrator 22.1.0, SVG Export Plug-In . SVG Version: 6.00 Build 0)  -->
<svg version="1.1" id="Layer_1" xmlns="http://www.w3.org/2000/svg" xmlns:xlink="http://www.w3.org/1999/xlink" x="0px" y="0px"
	 viewBox="0 0 10959.2 15251.8" style="enable-background:new 0 0 10959.2 15251.8;" xml:space="preserve">
<style type="text/css">
	.st0{fill:none;stroke:#000000;stroke-miterlimit:10;}
</style>
<path id="Island_Outline" class="st0" d="M267.6,14990.2l103.1,75.7l74.9-104.6l-19.7-16.2l11.2-14.7
	c41.6-33.2,99.8-97.9,141.7-140.3s117-109.9,117-109.9s286.7-257.3,312.3-280.7c25.6-23.4,194.2-183.9,194.2-183.9l-31-21.2
	l42.4-56.6l23.9,16.9c0,0,111.5-100.6,149.6-130c38.1-29.4,83.2-76.2,115.3-100.1c32.1-23.9,231.7-201.3,266-234.5
	c34.3-33.2,64.7-59.8,127.8-111c63.1-51.1,58.8-64.7,95.7-109.9c37-45.2,78.9-86,107.2-103.4c28.3-17.4,78.9-77.8,88.7-88.7
	c9.8-10.9,111.5-143.6,129.5-163.2s89.8-111,133.8-161c44.1-50,162.7-202.9,188.2-239.4s120.8-162.1,133.8-177.9
	c13.1-15.8,105-147.4,126.2-178.4c21.2-31,173.5-252.4,192-284c18.5-31.6,47.3-83.2,80-131.1c32.6-47.9,87-133.3,87-133.3h52.2
	c0,0,143.6-159.4,187.7-213.2c44.1-53.9,91.9-102.8,113.2-131.6c21.2-28.8,52.8-54.4,66.9-72.9s156.1-184.4,182.8-216
	c26.7-31.6,48.4-70.7,60.9-84.9c12.5-14.1,187.7-197.5,187.7-197.5s168.1-178.4,196.9-209.4c28.8-31,112.6-165.4,112.6-165.4
	s58.2-89.8,77.2-117c19-27.2,89.8-149.6,95.7-163.2c6-13.6,23.9-45.7,37-60.4c13.1-14.7,33.7-72.4,37.5-91.4s9.8-28.3,11.4-64.2
	c1.6-35.9,3.8-92.5,7.1-109.3c3.3-16.9,34.3-96.3,34.3-96.3c12.5-27.2,51.1-80,51.1-80s46.2-78.3,59.8-101.7
	c13.6-23.4,36.4-63.1,50-83.2c13.6-20.1,44.1-55.5,68-78.3c23.9-22.8,39.7-40.8,39.7-40.8v-10.3l52.8-58.8c20.1-20.7,51.1-37,62-43
	c10.9-6,53.3-80,62-94.7c8.7-14.7,112.6-176.3,112.6-176.3s99-146.3,131.6-190.9s118.6-181.7,136.5-202.9
	c18-21.2,116.4-118,148-145.8c31.6-27.7,139.3-133.3,169.2-161.6c29.9-28.3,100.1-99,140.4-143.1s71.3-104.4,105-155
	c33.7-50.6,120.2-183.3,130.6-199.6c10.3-16.3,128.4-194.2,128.4-194.2l126.8-194.8l115.3-186.6l121.9-195.8l129.5-199.1
	l102.8-160.5l158.8-249.2l130.6-202.4l130-204.5l167.6-255.7c69.1-113.7,175.2-257.9,175.2-257.9l121.9-176.3l161-224.1l178.4-250.2
	c72.4-91.4,161-274.7,161-274.7c70.2-134.4,151.8-276.9,151.8-276.9l146.3-266c57.7-127.8,134.4-229.6,134.4-229.6l165.4-240.4
	l121.3-167c0,0,135.5-205.6,164.3-238.8c28.8-33.2,91.9-102.3,163.2-164.8c71.3-62.6,200.2-183.9,200.2-183.9l143.1-133.3
	c56.6-44.1,181.7-114.2,181.7-114.2s60.9-36.4,111-71.3c50-34.8,105.5-187.1,105.5-187.1s15.2-49,46.8-119.1
	c31.6-70.2,39.7-102.8,81.1-153.4c41.3-50.6,71.8-92.5,108.8-154c112.1-179,143.6-329.1,143.6-429.2c0-49.5,7.1-138.2,0-186.6
	c-7.1-48.4-25.6-163.7-30.5-215.4c-4.9-51.7-14.7-242.6-14.7-242.6l3.3-171.4c2.2-110.4,58.8-251.3,58.8-251.3
	s70.2-121.3,70.2-126.2c37.5-75.1-88.7-150.7-140.4-59.8c-41.3,71.8-32.1,56-48.4,82.1s-91.2,135.2-127.3,174.1
	c-37.5,40.4-86.2,72.9-141.8,79.8s-143.7,23.2-177.4,29c-33.6,5.8-68.4,23.2-98.5,37.1c-30.1,13.9-156.5,81.1-179.7,91.6
	c-23.2,10.4-78.8,31.3-107.8,54.5c-29,23.2-100.9,95.1-137.9,136.8c-37.1,41.7-66.1,70.7-77.7,86.9c-11.6,16.2-64.6,110.1-129,210.2
	s-123.1,172.2-135.8,186.8c-12.8,14.7-123.1,151.8-177.9,215.5c-54.8,63.8-151.1,184.9-210.4,243.6
	c-59.3,58.7-61.8,63.1-116.7,100.1c-54.8,37-63.1,40.2-106.5,95c-43.4,54.8-56.1,72.1-84.2,100.1c-28.1,28.1-75.9,60.6-86.7,67.6
	c-10.8,7-7.7,9.6-7.7,22.3c0,12.8,4.5,15.9-1.9,26.1c-6.4,10.2-37.6,54.8-70.8,121.1c-33.2,66.3-78.4,139.6-103.9,200.2
	c-25.5,60.6-44.6,122.4-79.1,291.4l-59.9,9.6l-18.5,31.2l-8.8-5.6l-3.3,5.3l-52.9-30.9l5.5-9.8l-13.4-7.5l-32,53.6l13.9,7.7
	l7.7-13.4l52.3,30.1l-3.9,7l12,7.2l-119.4,211.5l-23.3,16.4c-25.4-18.4-47.5-23.7-47.5-23.7c-5.3,29,1.6,57.7,1.6,57.7l-29.5,19.2
	c0,0-246.1,445.6-274.4,494.8c-28.3,49.2-72.3,111.1-72.3,111.1l-319.8,469.6c-40.3,48.5-76,126.7-76,126.7l-111.1,198.3
	l-142.4,254.2l-164,287.7l-386.9,635.1l-79-17.1l-364.5,412.2c-44.7,53.7-246.8,357.8-246.8,357.8l-80.5,121.5
	c-17.1,26.1-32.1,67.1-32.1,67.1l-107.3,126l-14.2,40.3l-124.5,213.2c-80.5,134.9-171.5,285.5-171.5,285.5
	c-60.4,104.4-82,169.2-82,169.2l-170,392.1l-67.1,90.2h15.7l-355.6,469.6l-39.5,2.2l-32.8-29.8l-175.9,229.6l26.1,24.6l-69.3,78.3
	l-27.6,20.1l-88,155.8l-26.8,15.7l-404,618C3330.4,9900.8,3220,10108,3220,10108c-108.8,193.8-209.5,335.5-209.5,335.5l-172.2,269.1
	l-380.2,547.9l-214.7,300.4c-138.7,189.3-286.3,430.9-286.3,430.9l-234.8,358.6l7.5,6.7l-234.8,234.8l-32.8-30.6
	c-71.2,85.4-174.4,237.8-208.7,344.4c-34.3,106.6-140.9,404.8-140.9,404.8l-105.9,309.4c-6.7,26.8-55.2,190.8-55.2,190.8l-40.3,89.5
	l-49.9,66.3l-27.6-20.9L696,14237.8c-117,260.2-172.9,369.7-172.9,369.7c-35.8,74.5-69.3,133.4-69.3,133.4
	c-34.3,61.1-73.8,142.4-73.8,142.4l-13.4,19.4l-23.2-18.7L267.6,14990.2z"/>
<path class="st0" d="M10177.3,2106.7c-18.6,3.6-51.2-1.8-66.6-7.9c-15.4-6.1-73.1,19-81.7,64.5c-8.6,45.5-5,44.4-12.2,55.2
	s-22.9,39.8-36.2,52.6c-13.3,12.9-49.4,39-81.7,45.1s-71.3,6.8-82,3.9l-45.5,29.7c16.1,22.9,50.1,82.4,41.2,123.9
	s-14.3,49.1-25.1,53.4c-10.7,4.3-26.5,5.7-30.1,3.6l-8.6,30.8c10.7,10-0.7,44.1-20.8,58.4l-198.8,180.2c0,0-106.7,106.4-140.4,126.4
	s-96.7,26.5-146.1-40.1s-103.9-136.1-119.6-164s-106.3-104.6-157.4-129.9c-51.1-25.3-50.6-28.2-43.5-41.5
	c7.2-13.4,52.5-37.7,71.2-51.6c18.6-13.8,84.5-55.9,93.6-64c9.1-8.1-8.1-28.7-22.4-20.5c-14.3,8.1-142.3,105.1-149.9,110.3
	c-7.6,5.3-41.5,31-90.7,23.9c-49.2-7.2-91.7-44.9-91.7-44.9l-17.7,25.3c45.4,34.4,125.6,61.6,173.3,78.8
	c47.8,17.2,138,73.5,152.8,86c14.8,12.4,91.2,121.8,111.7,154.2c20.5,32.5,99.8,120.8,107.4,127c19.1,15.8,23.9,36.3-52.5,126.1
	c-76.4,89.8-86.9,109.4-108.9,145.2c-22,35.8-92.2,131.8-115.1,171c-22.9,39.2-55.4,97.9-98.4,150.4
	c-43,52.5-91.7,118.9-119.4,146.1s-56.8,73.5-78.8,107.4c-22,33.9-76.9,109.8-102.7,146.6c-25.8,36.8-47.8,69.2-103.1,90.7
	c-55.4,21.5-137.5,33-137.5,33s-166.2,34.9-209.6,39.6c-43.5,4.8-92.2,30.6-111.3,48.2c-19.1,17.7-92.6,96-132.3,166.2
	c-39.6,70.2-47.3,80.7-70.7,111.3c-23.4,30.6-117.5,154.7-139,176.7c-20.9,21.3-31.1,26.5-45.6,47.3l-0.1-0.1
	c-8.4,13.2-13.6,21.6-21.3,15.4l-28.6-20.5l-0.7,1c-13.9-8.7-73.1-45.5-92.3-58c-21.8-14.2-30.8-19.5-55.6-30.5
	c-24.8-11-49.2-18.1-88.8,39.2c-39.6,57.3-87.9,134.7-101.7,153.8c-13.8,19.1-92.2,139-109.8,166.2
	c-17.7,27.2-118.4,183.9-160.9,239.2c-42.5,55.4-49.7,65.4-63.5,86.9c-13.8,21.5-24.8,61.6,11,87.4c35.8,25.8,152.3,107.4,167.1,116
	c7.4,4.3,12,6.3,14.1,8.4l-117.2,171.4l-112.1,171.1c0,0-114.3,165.3-140.4,205.6c-26,40.3-77.7,118.7-104.1,146.6
	c-1.8,2.6-76.2,71.5-76.2,71.5l-156.5,152.1l-160.5,148.4c0,0-77.7,67.8-107,102.6c-29.3,34.8-50.9,91.3-57.5,106.6
	s-41.4,108.1-41.4,108.1l-106.3,252.9c0,0-97.1,244.8-114,289.5c-16.9,44.7-53.5,112.5-63.8,127.5l-123.9,119.5l-151.7,142.6
	c0,0-209.3,196.1-230.5,213.7c-20.5,14.3-101.9,105.9-122,126.4c-20.2,20.5-86.5,93.8-114.3,110.7c-27.9,16.9-66,30.4-79.9,39.9
	c-13.9,9.5-13.2,13.9-25.3,20.9c-12.1,7-39.9,8.1-100.4,18.3c-60.5,10.3-94.6,18.3-130.1,26c-35.5,7.7-57.9,29.3-92.7,61.9
	s-128.3,137.1-141.8,148.8c-13.6,11.7-88.7,97.8-116.5,126.1c-27.9,28.2-111.8,134.1-138.9,165.6c-27.1,31.5-30.1,37.4-65.2,96.4
	c-35.2,59-39.6,72.2-67.4,124.6c-27.9,52.4-68.9,79.5-101.1,95.3s-60.8,36.6-81.4,52c-20.5,15.4-55,51.3-65.2,59.7
	c-10.3,8.4-29,37.4-44.7,57.9c-15.8,20.5-63.4,83.2-71.8,96c-8.4,12.8-35.2,52-62.7,88c-27.5,35.9-60.1,89.1-76.6,113.6
	c-16.5,24.6-70.4,123.1-77.7,136.3c-7.3,13.2-12.8,42.5-12.8,59s0.7,16.5-4.8,30.1c-5.5,13.6-38.1,71.5-47.3,87.2
	c-9.2,15.8-60.8,121.7-93.8,173.3c-33,51.7-109.2,183.6-126.8,214.4s-45.4,79.5-45.4,79.5s-27.5,38.1-45.8,48.7
	c-18.3,10.6-27.9,9.9-70.4,65.2c-42.5,55.3-16.9,61.2-28.2,78.1c-11.4,16.9-22.4,36.6-42.1,63.8c-19.8,27.1-63,92.7-82.1,116.5
	c-19.1,23.8-111.8,162.3-132.7,189.5c-20.9,27.1-77.3,110.3-92,130.5c-14.7,20.2-74,103.7-74,103.7s-55,81.7-73.3,106.3
	c-18.3,24.6-45.4,61.2-45.4,61.2l-81.4,116.5c0,0-42.1,57.9-53.5,75.5c-11.4,17.6-63,94.5-72.2,109.2c-9.2,14.7-44.7,71.8-58.3,95.6
	c-13.6,23.8-50.9,87.6-64.1,113.2c-13.2,25.7-47.3,82.8-60.5,109.9c-13.2,27.1-41.8,77.3-57.2,109.2c-15.4,31.9-25.7,49.5-44.7,82.8
	c-19.1,33.3-55.3,92.7-55.3,92.7s-62.7,93.5-73.3,111c-10.6,17.6-53.1,76.6-80.3,103.3c-27.1,26.8-49.8,48.4-74,78.8
	c-36.3,47.6-9.9,86.9,0,96.7c9.9,9.9,55.3,44.7,61.6,49.1c6.2,4.4,135.2,98.9,135.2,98.9s56.8,44.3,99.7,75.5
	c42.9,31.1,106.3,71.5,106.3,71.5s80.6,52.8,128.6,84.7c48,31.9,86.9,1.5,97.1-13.6c0,0,17.2-16.9,33-38.5
	c15.8-21.6,96.2-138.6,143.8-192.8c47.6-54.2,114.6-142.9,144.2-181c29.7-38.1,88.7-120.2,109.9-149.2
	c21.3-29,128.6-186.2,158.3-226.8c29.7-40.7,107.7-163.8,107.7-163.8s59.4-86.9,82.5-117.3c23.1-30.4,69.6-103,90.9-132.3
	c21.3-29.3,85.8-124.6,98.2-141.8c12.5-17.2,90.5-130.8,90.5-130.8s53.5-79.5,115.4-157.6c61.9-78.1,122-111,175.9-152.5
	c53.9-41.4,128.3-35.2,139.3-41c11-5.9,42.9-45.1,55-63.4s60.1-83.6,73.7-109.2c13.6-25.7,52.4-95.3,85.4-162.7
	c33-67.4,108.1-175.5,118-196.1c9.9-20.5,35.9-39.2,97.5-90.9c0,0,65.6-49.7,79.4-76.1c11.2-21.4,17.2-55.4,10.3-97.9
	c-7-42.5-31.8-62.4-91.9-100.1c0,0-136-88.3-184-115.1c-48-26.8-38.5-52.8-38.8-61.6c-0.4-8.8,8.8-19.8,13.6-43.2
	c4.8-23.5,1.5-44.3,1.8-53.9c0.4-9.5,3.7-19.4,12.5-29.7c8.8-10.3,19.2-18.8,19.2-18.8l168.8-158.9c0,0,125.7-116.5,128.6-119.1
	c2.9-2.6,54.6-56.4,63.4-66.3c8.8-9.9,53.9-70.4,66-86.9c12.1-16.5,108.8-154.7,108.8-154.7l93.7-125.7l118.9-163.4l148.1-209.6
	c0,0,115.1-155.8,133.4-185.1s19.4-85,9.9-121.7c-9.5-36.6-35.2-132.7-36.3-190.9c-1.1-58.3,23.5-159.8,37-174.8
	c13.6-15,85.8-83.6,101.9-100.4c16.1-16.9,123.5-128.3,148.4-148.4s90.2-71.5,112.9-93.1c22.7-21.6,133.4-131.6,133.4-131.6
	s138.5-129,163.8-151.4c25.3-22.4,74-75.9,94.6-125.3c20.5-49.5,85-215.5,85-215.5s70-188.7,88.3-234.5
	c18.3-45.8,67.4-166,87.2-218.8c19.8-52.8,78.8-144,119.8-192l211.8-190.6c0,0,219.9-206,245.5-227.6c25.7-21.6,39.2-35.9,59.4-64.9
	c20.2-29,20.2-33.3,37.4-56.8c0,0,69.3-103.3,92-133.8c22.7-30.4,31.5-35.5,49.5-23.8l116.2-172.6c-11.7-7.7-23.5-26.8-12.8-45.1
	l45.1-72.2l266.1-398l165.3-242.6l196.1-288.8c17.3-26,45.6-51.8,81.4-29.6l14.3-21.1c-22.6-15-40.8-29.4-18.6-62.3
	c22.2-33,36.2-50.9,56.9-80.2c20.8-29.4,69.1-97.1,89.2-124.3c20.1-27.2,40.8-70.2,71.6-113.9c30.8-43.7,63.4-74.9,89.5-86.3
	s20.8-12.5,63.4-23.3c42.6-10.7,61.7-11.6,110.7-20.1c51.9-9,109.2-24,154-30.1c44.8-6.1,67.3-11.1,105.3-26.5s71.3-47.6,86.7-71.3
	c15.4-23.6,56.6-89.2,56.6-89.2s43.3-64.8,56.9-82.7c13.6-17.9,46.2-63.4,72.7-91c26.5-27.6,53.7-67,68.8-86.7
	c15-19.7,68.4-89.9,87.7-116c19.3-26.1,75.6-110.7,86-125.7c10.4-15,54.4-87.7,56.6-90.6c2.1-2.9,65.5-96.3,91.3-127.9
	c25.8-31.5,72.3-97.8,94.9-118.6c22.6-20.8,98.9-91.7,115-106.4c16.1-14.7,86.7-82,115-104.9c28.3-22.9,89.9-84.9,154.4-141.5
	c64.5-56.6,108.9-94.2,142.5-125c33.7-30.8,79.2-86.7,79.2-86.7s56.9-71.6,86-118.2c29-46.6,25.8-49.4,39.4-68.4
	c13.6-19,68.1-44.8,86.7-51.9s76.3-39,85.2-52.6c9-13.6,18.6-43,26.1-57.7c7.5-14.7,23.6-50.5,23.6-50.5L10177.3,2106.7z
	 M3631.3,11250.5c-46.7,32.1-86.2,52-138.5,109c-52.4,57-95.1,116.5-120.4,153.5c-25.3,37-215.1,311.6-215.1,311.6l-126.4,179.5
	c0,0-173.1,256.1-185.9,276.4c-12.8,20.3-117.5,168.8-161,227.2c-43.5,58.4-102.2,138.5-139.6,185.2
	c-37.4,46.7-127.9,158.1-167.4,209.4c-39.5,51.3-52.9,72.2-85.4,113.9c-6.2,7.9-33.4,39.8-62.8,21.6
	c-29.4-18.2-130.9-82.5-130.9-82.5l-96.9-60.9l-193.9-143.4l-89.7-72.1c-26.4-25.1-33.4-50.7,0-91.6s53.4-59.3,83.9-99.9
	c30.4-40.6,53.9-74.2,74.2-104.2c20.3-29.9,41.7-65.2,73.2-114c31.5-48.9,61.4-106,95.1-170.4c33.6-64.4,82-149,104.2-190.4
	c22.2-41.4,59.6-112.7,92.1-167.2c32.6-54.5,88.9-139.9,116.4-180c27.5-40.1,105.5-146.6,105.5-146.6s54.5-80.4,72.6-108.2
	c18.2-27.8,70-99.9,100.7-143.9s82.8-118,123.1-172.5c40.3-54.5,158.1-228.9,164.5-238.2c27.5-41.4,40.6-51.5,96.9-11.2
	c56.3,40.3,220.1,153.2,251.8,173.9c31.7,20.7,136.4,96.2,262.9,183.1c91.2,66.2,104.4,75.9,104.4,75.9
	C3675.1,11203.5,3677.9,11218.4,3631.3,11250.5z M4013.5,10255.6l140.2,84.3c0,0,60.6,36.6,91.9,55.6c31.3,19,47,52.3,27.6,96.9
	c-19.3,44.6-25,45.3-82.9,88.3c0,0-65.6,48.6-96.3,92.6c-30.6,44-98.9,160.2-117.3,196.2c-18.3,36-55,107.6-76.3,141.9
	c-21.3,34.3-76.3,122.6-105.9,157.9c-29.6,35.3-50,35-69.6,28.6c-19.7-6.3-40.6-18.3-54.3-28.3l-154.2-110.3l-180.2-127.3
	l-161.6-115.3c0,0-106.6-74-141.6-97.9c-35-24-30.3-39.3-13-78.6c0,0,7.3-17.1,20.6-37.7c13.3-20.7,71.3-89.2,96.3-115.5
	c25-26.3,44.6-57.3,78.6-113.6l73.6-129.3c0,0,57.6-103.9,79.6-144.6c22-40.6,29-54.6,53.3-97.6c24.3-43,66-29.3,96.3-15.7
	c13.1,5.9,135.9,68,169.9,84.6c34,16.7,151.2,71,197.2,96.3C3931.6,10192.6,3961.9,10224.9,4013.5,10255.6z M5033.5,8690.8
	c-14.7,35.5-72,102.4-99.6,140.8c-27.6,38.3-82.7,118.6-103.5,147.6c-20.8,29-62.7,86-94.9,129.3c-32.2,43.3-72,100.6-82.7,115.3
	s-156.5,212-173.7,240.3c-17.2,28.3-86,118.5-102.1,142.5c-16.1,24-63,68-93.1,94.6s-78.1,76.6-91.3,90.6c-13.3,14-48,43-89.5,81.7
	c-41.5,38.7-66.3,60.5-90.6,76.3c-24.4,15.8-50.2,23.3-74.5,25.1c-40.1,2.9-67.7,19-86,36.9c-17.9,17.5-28.3,45.1-48.5,46.2
	c-8.6,0.5-31.9-11.6-39-16.3s-124.5-64.5-151.9-76.9c-27.5-12.4-65.3-32.5-81.6-40.2c-16.3-7.7-57.8-47.2-34.2-104
	s58.7-121.8,88.8-168.7c30.1-46.9,37.2-58,80.6-115.3c43.3-57.3,84.1-119.7,109.2-150.1c12.8-15.5,19.3-25.4,33.7-44.8
	c14.3-19.3,30.8-54.1,67-78.1c36.2-24,62.3-41.5,87.7-53.7c25.4-12.2,45.5-21.5,68.4-35.8c22.9-14.3,42.3-50.1,45.8-55.9
	s75.6-135,75.6-135s26.5-61.2,43-84.2s10.4-16.5,44.8-55.5c34.4-39,101-118.6,120.3-136.8c19.3-18.3,89.9-101,112.1-124.3
	c22.2-23.3,55.5-62.3,55.5-62.3s49.1-40.8,84.9-75.2c35.8-34.4,44.8-56.2,104.6-67.7s139.3-27.2,149.7-29.7
	c10.4-2.5,22.6,5.4,28.3,15.4s43,43.3,64.1,49.4s32.6,19,31.2,37.6s17.5,87.7,27.9,119.3C5030.2,8600.5,5048.2,8655.3,5033.5,8690.8
	z M7584.6,4779.5c-6.6,10.3-52,76.2-52,76.2l-191.7,280.4l-94.2,138.9l-113.2,167.4c-10.9,3.1-28.7-1.8-43-11.2
	c-18.6-12.2-125-83.5-142.9-96.3c-17.9-12.9-14.7-33-2.1-49.8s62.6-92.8,92.7-136.8c30.1-44.1,83.5-120.3,103-148.6
	c19.5-28.3,99-159.7,129.5-198.4c30.4-38.7,82-118.6,96.7-141.8c14.7-23.3,25.1-49.1,52.6-37.2c27.6,11.8,134.5,76.7,146.7,87.3
	l0.6-0.9C7586.8,4722.8,7601.1,4754,7584.6,4779.5z M9933.1,2371.1c-5.7,6.8-44.1,65.2-55.9,85.6s-24.4,8.6-22.6-3.9
	c1.8-12.5-14.5-58.7-21.1-76.6c-2.8-7.6,0.7-13.6,13.6-10c16.3,4.5,60.9-6.4,71.6-11.1C9929.5,2350.3,9938.8,2364.3,9933.1,2371.1z
	 M10156.9,2180.5c-14.7,50.9-62.1,77.7-109.2,93.1c-5.1,1.7-9.7-1.4-7.9-12.5c1.8-11.1,21.8-76.3,33.7-96
	S10171.6,2129.7,10156.9,2180.5z"/>
<path class="st0" d="M10058.8,2337.8"/>
<circle cx="8880.1" cy="2577" r="2"/>
<circle cx="2256.7" cy="13053.1" r="2.6"/>
</svg>
